<svg id="directbox-send" xmlns="http://www.w3.org/2000/svg" width="19" height="19" viewBox="0 0 19 19">
  <path id="Vector" d="M1.583,4.75V0L0,1.583" transform="translate(7.917 1.583)" fill="none" stroke="#292d32" stroke-linecap="round" stroke-linejoin="round" stroke-width="1"/>
  <path id="Vector-2" data-name="Vector" d="M0,0,1.583,1.583" transform="translate(9.5 1.583)" fill="none" stroke="#292d32" stroke-linecap="round" stroke-linejoin="round" stroke-width="1"/>
  <path id="Vector-3" data-name="Vector" d="M3.167,0C0,0,0,1.417,0,3.167v.792C0,6.143,0,7.917,3.958,7.917h6.333c3.167,0,3.958-1.773,3.958-3.958V3.167c0-1.75,0-3.167-3.167-3.167A1.869,1.869,0,0,0,9.658.475l-.807.855a2.374,2.374,0,0,1-3.46,0l-.8-.855A1.869,1.869,0,0,0,3.167,0Z" transform="translate(2.375 9.5)" fill="none" stroke="#292d32" stroke-linecap="round" stroke-linejoin="round" stroke-width="1"/>
  <path id="Vector-4" data-name="Vector" d="M0,4.718V3.135C0,1.544,0,.23,2.375,0" transform="translate(3.958 4.782)" fill="none" stroke="#292d32" stroke-linecap="round" stroke-linejoin="round" stroke-width="1"/>
  <path id="Vector-5" data-name="Vector" d="M2.375,4.718V3.135C2.375,1.544,2.375.23,0,0" transform="translate(12.667 4.782)" fill="none" stroke="#292d32" stroke-linecap="round" stroke-linejoin="round" stroke-width="1"/>
  <path id="Vector-6" data-name="Vector" d="M0,0H19V19H0Z" fill="none" opacity="0"/>
</svg>
